<svg width="101" height="75" viewBox="0 0 101 75" fill="none" xmlns="http://www.w3.org/2000/svg">
<path d="M79.5758 19.894C79.5758 33.4166 84.3717 44.3788 90.2879 44.3788C99.6179 44.3788 100.822 20.9713 100.977 5.99639C101.011 2.68286 98.2988 0.0223264 95.0433 0.640907C88.7036 1.84554 79.5758 5.31435 79.5758 15.303V19.894Z" fill="#009D85"/>
<path d="M79.5758 19.894C79.5758 33.4166 84.3717 44.3788 90.2879 44.3788C99.6179 44.3788 100.822 20.9713 100.977 5.99639C101.011 2.68286 98.2988 0.0223264 95.0433 0.640907C88.7036 1.84554 79.5758 5.31435 79.5758 15.303V19.894Z" fill="url(#paint0_linear_2670_6629)" fill-opacity="0.3"/>
<path d="M21.4242 19.894C21.4242 33.4166 16.6283 44.3788 10.7121 44.3788C1.38212 44.3788 0.178327 20.9713 0.0230085 5.99639C-0.0113591 2.68286 2.70125 0.0223264 5.95671 0.640907C12.2964 1.84554 21.4242 5.31435 21.4242 15.303V19.894Z" fill="#009D85"/>
<path d="M21.4242 19.894C21.4242 33.4166 16.6283 44.3788 10.7121 44.3788C1.38212 44.3788 0.178327 20.9713 0.0230085 5.99639C-0.0113591 2.68286 2.70125 0.0223264 5.95671 0.640907C12.2964 1.84554 21.4242 5.31435 21.4242 15.303V19.894Z" fill="url(#paint1_linear_2670_6629)" fill-opacity="0.3"/>
<rect x="6.88623" y="9.94727" width="87.2273" height="65.0379" rx="32.5189" fill="#46FFE3"/>
<rect x="6.88623" y="9.94727" width="87.2273" height="65.0379" rx="32.5189" fill="url(#paint2_linear_2670_6629)" fill-opacity="0.11"/>
<rect x="61.2119" y="34.4336" width="22.1894" height="22.1894" rx="11.0947" fill="#001A16"/>
<rect x="61.2119" y="34.4336" width="22.1894" height="22.1894" rx="11.0947" fill="url(#paint3_linear_2670_6629)" fill-opacity="0.4"/>
<path d="M75.0377 47.1281C76.5956 47.1281 77.8586 45.8651 77.8586 44.3072C77.8586 42.7493 76.5956 41.4863 75.0377 41.4863C73.4797 41.4863 72.2168 42.7493 72.2168 44.3072C72.2168 45.8651 73.4797 47.1281 75.0377 47.1281Z" fill="#F1FFFD"/>
<path d="M78.1414 42.3326C78.9204 42.3326 79.5518 41.7011 79.5518 40.9222C79.5518 40.1432 78.9204 39.5117 78.1414 39.5117C77.3624 39.5117 76.731 40.1432 76.731 40.9222C76.731 41.7011 77.3624 42.3326 78.1414 42.3326Z" fill="#F1FFFD"/>
<rect x="17.5986" y="34.4336" width="22.1894" height="22.1894" rx="11.0947" fill="#001A16"/>
<rect x="17.5986" y="34.4336" width="22.1894" height="22.1894" rx="11.0947" fill="url(#paint4_linear_2670_6629)" fill-opacity="0.4"/>
<path d="M31.5524 47.2112C33.1764 47.2112 34.4929 45.8947 34.4929 44.2706C34.4929 42.6466 33.1764 41.3301 31.5524 41.3301C29.9283 41.3301 28.6118 42.6466 28.6118 44.2706C28.6118 45.8947 29.9283 47.2112 31.5524 47.2112Z" fill="#F1FFFD"/>
<path d="M34.7881 42.212C35.6002 42.212 36.2584 41.5538 36.2584 40.7418C36.2584 39.9297 35.6002 39.2715 34.7881 39.2715C33.9761 39.2715 33.3179 39.9297 33.3179 40.7418C33.3179 41.5538 33.9761 42.212 34.7881 42.212Z" fill="#F1FFFD"/>
<rect x="63.5078" y="23.7207" width="16.9544" height="3.82576" rx="1.91288" fill="#009D85"/>
<rect x="63.5078" y="23.7207" width="16.9544" height="3.82576" rx="1.91288" fill="url(#paint5_linear_2670_6629)" fill-opacity="0.3"/>
<rect x="20.6592" y="23.7207" width="16.9544" height="3.82576" rx="1.91288" fill="#009D85"/>
<rect x="20.6592" y="23.7207" width="16.9544" height="3.82576" rx="1.91288" fill="url(#paint6_linear_2670_6629)" fill-opacity="0.3"/>
<path d="M50.5158 69.1234C45.2388 69.1234 40.6948 66.4793 38.6488 62.678C37.4778 60.5024 39.7152 58.4921 42.1753 58.7214C44.4346 58.932 47.3427 59.1204 50.5158 59.1204C53.689 59.1204 56.5971 58.932 58.8564 58.7214C61.3165 58.4921 63.5539 60.5024 62.3829 62.678C60.3369 66.4793 55.7929 69.1234 50.5158 69.1234Z" fill="#6E0002"/>
<path d="M50.5158 69.1234C45.2388 69.1234 40.6948 66.4793 38.6488 62.678C37.4778 60.5024 39.7152 58.4921 42.1753 58.7214C44.4346 58.932 47.3427 59.1204 50.5158 59.1204C53.689 59.1204 56.5971 58.932 58.8564 58.7214C61.3165 58.4921 63.5539 60.5024 62.3829 62.678C60.3369 66.4793 55.7929 69.1234 50.5158 69.1234Z" fill="url(#paint7_linear_2670_6629)" fill-opacity="0.5"/>
<path d="M50.7271 65.793C53.6484 65.793 56.4153 66.067 58.8862 66.5557C56.6226 68.1574 53.7037 69.124 50.5161 69.124C47.3731 69.124 44.4908 68.1848 42.2407 66.623C44.7936 66.0929 47.676 65.793 50.7271 65.793Z" fill="#FF6669"/>
<path d="M50.7271 65.793C53.6484 65.793 56.4153 66.067 58.8862 66.5557C56.6226 68.1574 53.7037 69.124 50.5161 69.124C47.3731 69.124 44.4908 68.1848 42.2407 66.623C44.7936 66.0929 47.676 65.793 50.7271 65.793Z" fill="url(#paint8_linear_2670_6629)" fill-opacity="0.4"/>
<rect x="43.6138" y="48.2051" width="13.7727" height="8.41667" rx="4.20833" fill="#009D85"/>
<rect x="43.6138" y="48.2051" width="13.7727" height="8.41667" rx="4.20833" fill="url(#paint9_linear_2670_6629)" fill-opacity="0.3"/>
<defs>
<linearGradient id="paint0_linear_2670_6629" x1="90.2879" y1="0" x2="90.2879" y2="44.3788" gradientUnits="userSpaceOnUse">
<stop offset="0.529539" stop-color="#46FFE3" stop-opacity="0"/>
<stop offset="1" stop-color="#46FFE3"/>
</linearGradient>
<linearGradient id="paint1_linear_2670_6629" x1="10.7121" y1="0" x2="10.7121" y2="44.3788" gradientUnits="userSpaceOnUse">
<stop offset="0.529539" stop-color="#46FFE3" stop-opacity="0"/>
<stop offset="1" stop-color="#46FFE3"/>
</linearGradient>
<linearGradient id="paint2_linear_2670_6629" x1="50.4999" y1="9.94727" x2="50.4999" y2="74.9851" gradientUnits="userSpaceOnUse">
<stop offset="0.677885" stop-color="#47FFE3" stop-opacity="0"/>
<stop offset="1" stop-color="#AD00DC"/>
</linearGradient>
<linearGradient id="paint3_linear_2670_6629" x1="72.3066" y1="34.4336" x2="72.3066" y2="56.623" gradientUnits="userSpaceOnUse">
<stop offset="0.677885" stop-color="#F1FFFD" stop-opacity="0"/>
<stop offset="1" stop-color="#F1FFFD"/>
</linearGradient>
<linearGradient id="paint4_linear_2670_6629" x1="28.6933" y1="34.4336" x2="28.6933" y2="56.623" gradientUnits="userSpaceOnUse">
<stop offset="0.677885" stop-color="#F1FFFD" stop-opacity="0"/>
<stop offset="1" stop-color="#F1FFFD"/>
</linearGradient>
<linearGradient id="paint5_linear_2670_6629" x1="71.985" y1="23.7207" x2="71.985" y2="27.5465" gradientUnits="userSpaceOnUse">
<stop offset="0.529539" stop-color="#46FFE3" stop-opacity="0"/>
<stop offset="1" stop-color="#46FFE3"/>
</linearGradient>
<linearGradient id="paint6_linear_2670_6629" x1="29.1364" y1="23.7207" x2="29.1364" y2="27.5465" gradientUnits="userSpaceOnUse">
<stop offset="0.529539" stop-color="#46FFE3" stop-opacity="0"/>
<stop offset="1" stop-color="#46FFE3"/>
</linearGradient>
<linearGradient id="paint7_linear_2670_6629" x1="51.3454" y1="58.2771" x2="51.3454" y2="68.9892" gradientUnits="userSpaceOnUse">
<stop offset="0.49408" stop-color="#001A16" stop-opacity="0"/>
<stop offset="1" stop-color="#001A16"/>
</linearGradient>
<linearGradient id="paint8_linear_2670_6629" x1="50.5635" y1="65.793" x2="50.5635" y2="69.124" gradientUnits="userSpaceOnUse">
<stop offset="0.677885" stop-color="#F1FFFD" stop-opacity="0"/>
<stop offset="1" stop-color="#F1FFFD"/>
</linearGradient>
<linearGradient id="paint9_linear_2670_6629" x1="50.5001" y1="48.2051" x2="50.5001" y2="56.6217" gradientUnits="userSpaceOnUse">
<stop offset="0.529539" stop-color="#46FFE3" stop-opacity="0"/>
<stop offset="1" stop-color="#46FFE3"/>
</linearGradient>
</defs>
</svg>
